<svg id='Sad Cloud' width='24' height='24' viewBox='0 0 24 24' xmlns='http://www.w3.org/2000/svg'
    xmlns:xlink='http://www.w3.org/1999/xlink'>
    <rect width='24' height='24' stroke='none' opacity='0' />


    <g transform="matrix(0.4 0 0 0.4 12 12)">
        <path
            style="stroke: none; stroke-width: 1; stroke-dasharray: none; stroke-linecap: butt; stroke-dashoffset: 0; stroke-linejoin: miter; stroke-miterlimit: 4; fill: #3730a3; fill-rule: nonzero; opacity: 1;"
            transform=" translate(-25, -24.27)"
            d="M 28.992188 8.546875 C 23.777344 8.546875 19.382813 11.660156 17.261719 16.070313 C 16.128906 15.289063 14.832031 14.722656 13.355469 14.722656 C 9.640625 14.722656 6.652344 17.664063 6.429688 21.324219 C 2.707031 22.671875 0 26.152344 0 30.328125 C 0 35.660156 4.339844 40 9.671875 40 L 41.097656 40 C 46.003906 40 50 36.003906 50 31.097656 C 50 26.546875 46.511719 22.917969 42.09375 22.398438 C 42.109375 22.164063 42.140625 21.9375 42.140625 21.695313 C 42.140625 14.445313 36.242188 8.546875 28.992188 8.546875 Z M 28.992188 10.546875 C 35.164063 10.546875 40.140625 15.527344 40.140625 21.695313 C 40.140625 22.152344 40.105469 22.609375 40.046875 23.078125 L 39.90625 24.199219 L 41.039063 24.199219 C 41.160156 24.199219 41.175781 24.199219 41.097656 24.199219 C 44.921875 24.199219 48 27.277344 48 31.097656 C 48 34.921875 44.921875 38 41.097656 38 L 9.671875 38 C 5.421875 38 2 34.578125 2 30.328125 C 2 26.792969 4.386719 23.839844 7.625 22.945313 L 8.386719 22.734375 L 8.359375 21.949219 C 8.355469 21.808594 8.347656 21.738281 8.347656 21.730469 C 8.347656 18.953125 10.578125 16.722656 13.355469 16.722656 C 14.746094 16.722656 15.992188 17.285156 16.898438 18.191406 L 18 19.296875 L 18.546875 17.832031 C 20.117188 13.585938 24.183594 10.546875 28.992188 10.546875 Z M 19 22 C 17.894531 22 17 22.894531 17 24 C 17 25.105469 17.894531 26 19 26 C 20.105469 26 21 25.105469 21 24 C 21 22.894531 20.105469 22 19 22 Z M 31 22 C 29.894531 22 29 22.894531 29 24 C 29 25.105469 29.894531 26 31 26 C 32.105469 26 33 25.105469 33 24 C 33 22.894531 32.105469 22 31 22 Z M 25 29 C 18.980469 29 15.246094 33.34375 15.246094 33.34375 C 15 33.613281 14.917969 33.996094 15.035156 34.339844 C 15.148438 34.683594 15.445313 34.941406 15.800781 35.003906 C 16.160156 35.070313 16.527344 34.9375 16.753906 34.65625 C 16.753906 34.65625 19.945313 31 25 31 C 30.054688 31 33.246094 34.65625 33.246094 34.65625 C 33.472656 34.9375 33.839844 35.070313 34.199219 35.003906 C 34.554688 34.941406 34.851563 34.683594 34.964844 34.339844 C 35.082031 33.996094 35 33.613281 34.753906 33.34375 C 34.753906 33.34375 31.019531 29 25 29 Z"
            stroke-linecap="round" />
    </g>
</svg>